<svg width="12" height="12" viewBox="0 0 12 12" fill="none" xmlns="http://www.w3.org/2000/svg">
<path d="M4.7088 2.11117C5.25596 0.701769 5.52954 -0.00292969 6 -0.00292969C6.47046 -0.00292969 6.74404 0.701769 7.29121 2.11117L7.31668 2.1768C7.62581 2.97304 7.78037 3.37116 8.09537 3.61314C8.41038 3.85512 8.82388 3.89339 9.6509 3.96991L9.80041 3.98375C11.1539 4.10899 11.8307 4.17162 11.9755 4.61649C12.1203 5.06136 11.6177 5.5338 10.6125 6.47869L10.2771 6.79404C9.76822 7.27236 9.5138 7.51152 9.39522 7.82497C9.3731 7.88344 9.35471 7.94334 9.34017 8.0043C9.26223 8.33107 9.33673 8.67802 9.48573 9.37191L9.53211 9.5879C9.80595 10.8631 9.94287 11.5008 9.70381 11.7758C9.61448 11.8786 9.49837 11.9526 9.3694 11.9889C9.02424 12.0862 8.5342 11.6736 7.55412 10.8485C6.91057 10.3067 6.58879 10.0358 6.21936 9.97481C6.07404 9.95084 5.92596 9.95084 5.78064 9.97481C5.41121 10.0358 5.08943 10.3067 4.44588 10.8485C3.4658 11.6736 2.97576 12.0862 2.6306 11.9889C2.50163 11.9526 2.38552 11.8786 2.29619 11.7758C2.05712 11.5008 2.19405 10.8631 2.46789 9.5879L2.51427 9.37191C2.66327 8.67802 2.73777 8.33107 2.65983 8.0043C2.64529 7.94334 2.6269 7.88344 2.60478 7.82497C2.4862 7.51152 2.23178 7.27236 1.72294 6.79404L1.38746 6.47869C0.38228 5.5338 -0.12031 5.06136 0.0244998 4.61649C0.16931 4.17162 0.846069 4.10899 2.19959 3.98375L2.3491 3.96991C3.17612 3.89339 3.58962 3.85512 3.90463 3.61314C4.21963 3.37116 4.37419 2.97304 4.68332 2.1768L4.7088 2.11117Z" fill="#FFC700"/>
</svg>
